<svg width="24" height="24" viewBox="0 0 24 24" fill="none" xmlns="http://www.w3.org/2000/svg">
<path fill-rule="evenodd" clip-rule="evenodd" d="M11 16.001C11 16.553 10.552 17.001 10 17.001L6 17C5.447 17 5 16.552 5 16C5 15.448 5.448 15 6 15L10 15.001C10.553 15.001 11 15.449 11 16.001ZM19 13C19 13.552 18.553 14 18 14L16 14.001C15.448 14.001 15 13.554 15 13.001C15 12.449 15.447 12.001 16 12.001L18 12C18.552 12 19 12.447 19 13ZM14 13C14 13.552 13.552 14 13 14H6C5.448 14 5 13.552 5 13C5 12.448 5.448 12 6 12H13C13.552 12 14 12.448 14 13ZM19 19.001H5C3.897 19.001 3 18.104 3 17.001V10H21V17.001C21 18.104 20.103 19.001 19 19.001ZM5 5H19C20.103 5 21 5.897 21 7V8H3V7C3 5.897 3.897 5 5 5ZM19 3H5C2.794 3 1 4.794 1 7V17.001C1 19.207 2.794 21.001 5 21.001H19C21.206 21.001 23 19.207 23 17.001V7C23 4.794 21.206 3 19 3Z" fill="#009846"/>
</svg>
