<svg width="18" height="18" viewBox="0 0 18 18" fill="none" xmlns="http://www.w3.org/2000/svg">
<path d="M9.75 8.25H11.25C11.4489 8.25 11.6397 8.32902 11.7803 8.46967C11.921 8.61032 12 8.80109 12 9C12 9.19891 11.921 9.38968 11.7803 9.53033C11.6397 9.67098 11.4489 9.75 11.25 9.75H9C8.80109 9.75 8.61032 9.67098 8.46967 9.53033C8.32902 9.38968 8.25 9.19891 8.25 9V5.625C8.25 5.42609 8.32902 5.23532 8.46967 5.09467C8.61032 4.95402 8.80109 4.875 9 4.875C9.19891 4.875 9.38968 4.95402 9.53033 5.09467C9.67098 5.23532 9.75 5.42609 9.75 5.625V8.25Z" fill="#009846"/>
<path fill-rule="evenodd" clip-rule="evenodd" d="M4.83322 2.76398C6.06659 1.93987 7.51664 1.5 9 1.5C10.9891 1.5 12.8968 2.29018 14.3033 3.6967C15.7098 5.10322 16.5 7.01088 16.5 9C16.5 10.4834 16.0601 11.9334 15.236 13.1668C14.4119 14.4001 13.2406 15.3614 11.8701 15.9291C10.4997 16.4968 8.99168 16.6453 7.53683 16.3559C6.08197 16.0665 4.74559 15.3522 3.69669 14.3033C2.6478 13.2544 1.93351 11.918 1.64412 10.4632C1.35473 9.00832 1.50324 7.50032 2.0709 6.12987C2.63856 4.75943 3.59985 3.58809 4.83322 2.76398ZM5.66658 13.9888C6.65327 14.6481 7.81331 15 9 15C10.5913 15 12.1174 14.3679 13.2426 13.2426C14.3679 12.1174 15 10.5913 15 9C15 7.81331 14.6481 6.65327 13.9888 5.66658C13.3295 4.67988 12.3925 3.91085 11.2961 3.45672C10.1997 3.0026 8.99334 2.88378 7.82945 3.11529C6.66557 3.3468 5.59647 3.91824 4.75736 4.75736C3.91824 5.59647 3.3468 6.66557 3.11529 7.82946C2.88378 8.99334 3.0026 10.1997 3.45672 11.2961C3.91085 12.3925 4.67988 13.3295 5.66658 13.9888Z" fill="#009846"/>
</svg>
