<svg width="62" height="61" viewBox="0 0 62 61" fill="none" xmlns="http://www.w3.org/2000/svg">
<path fill-rule="evenodd" clip-rule="evenodd" d="M30.9998 60.9166C14.0415 60.9166 0.166504 47.2291 0.166504 30.5C0.166504 13.7708 14.0415 0.083313 30.9998 0.083313C47.9582 0.083313 61.8332 13.7708 61.8332 30.5C61.8332 47.2291 47.9582 60.9166 30.9998 60.9166ZM30.9998 6.16665C17.4332 6.16665 6.33317 17.1166 6.33317 30.5C6.33317 43.8833 17.4332 54.8333 30.9998 54.8333C44.5665 54.8333 55.6665 43.8833 55.6665 30.5C55.6665 17.1166 44.5665 6.16665 30.9998 6.16665ZM30.0748 41.7541L45.4915 26.5458C46.7248 25.3291 46.7248 23.5041 45.4915 22.2875C44.2582 21.0708 42.4082 21.0708 41.1748 22.2875L27.9165 35.3666L22.3665 29.8916C21.1332 28.675 19.2832 28.675 18.0498 29.8916C16.8165 31.1083 16.8165 32.9333 18.0498 34.15L25.7582 41.7541C26.3748 42.3625 27.2998 42.6666 27.9165 42.6666C28.5332 42.6666 29.4582 42.3625 30.0748 41.7541Z" fill="#009846"/>
</svg>
