<?xml version="1.0" encoding="UTF-8"?>
<!DOCTYPE svg PUBLIC "-//W3C//DTD SVG 1.1//EN" "http://www.w3.org/Graphics/SVG/1.1/DTD/svg11.dtd">
<!-- Creator: CorelDRAW 2020 (64-Bit) -->
<svg xmlns="http://www.w3.org/2000/svg" xml:space="preserve" width="21.1666mm" height="5.08mm" version="1.1" style="shape-rendering:geometricPrecision; text-rendering:geometricPrecision; image-rendering:optimizeQuality; fill-rule:evenodd; clip-rule:evenodd"
viewBox="0 0 2116.66 508"
 xmlns:xlink="http://www.w3.org/1999/xlink"
 xmlns:xodm="http://www.corel.com/coreldraw/odm/2003">
 <defs>
  <style type="text/css">
   <![CDATA[
    .fil0 {fill:none}
    .fil1 {fill:#10A656;fill-rule:nonzero}
   ]]>
  </style>
 </defs>
 <g id="Слой_x0020_1">
  <metadata id="CorelCorpID_0Corel-Layer"/>
  <rect class="fil0" x="-0" y="-0.01" width="2116.67" height="508"/>
  <g id="_1595746632768">
   <g>
    <path class="fil1" d="M195.9 340.79l-67.44 -75.88c-4.96,-5.45 -7.19,-9.42 -7.19,-13.14 0,-4.71 1.48,-8.43 5.2,-12.9l60.26 -71.66 -66.46 0 -46.61 65.46c-3.72,5.46 -5.46,11.66 -5.46,19.1 0,7.44 0.5,15.12 5.95,21.82l54.31 67.2 67.44 0zm-191.67 0l56.04 0 0 -173.58 -56.04 0 0 173.58z"/>
    <path class="fil1" d="M185.98 340.79l59.02 0 13.64 -35.71 62.49 0 13.63 35.71 59.02 0 -64.22 -154.49c-7.94,-19.34 -23.31,-21.08 -39.68,-21.08 -26.78,0 -34.22,8.19 -39.67,21.08l-64.23 154.49zm101.18 -121.75c0.74,-1.74 1.98,-3.72 2.72,-3.72 0.75,0 1.99,1.98 2.73,3.72l16.86 47.85 -39.18 0 16.87 -47.85zm294.83 16.61c1.73,-4.71 2.72,-6.2 3.72,-6.2 1.98,0 1.98,3.47 1.98,5.7l-1.98 105.64 56.53 0 0 -145.06c0,-10.92 -3.22,-30.51 -42.65,-30.51 -14.63,0 -35.7,2.24 -44.63,28.77l-28.02 84.31c-0.5,1.74 -2.98,7.94 -5.21,7.94 -2.23,0 -4.71,-6.2 -5.21,-7.94l-28.02 -84.31c-8.92,-26.78 -29.75,-28.77 -44.63,-28.77 -8.93,0 -42.65,0 -42.65,30.51l0 145.06 56.54 0 -1.74 -105.64c0,-1.73 0,-5.7 1.98,-5.7 1.24,0 2.48,2.98 3.48,6.2l26.78 83.82c3.96,12.64 8.92,23.31 33.47,23.31 24.55,0 29.51,-10.67 33.48,-23.31l26.78 -83.82zm276.73 105.14l-67.45 -75.88c-4.96,-5.45 -7.19,-9.42 -7.19,-13.14 0,-4.71 1.49,-8.43 5.21,-12.9l60.25 -71.66 -66.45 0 -46.62 65.46c-3.72,5.46 -5.45,11.66 -5.45,19.1 0,7.44 0.49,15.12 5.95,21.82l54.3 67.2 67.45 0zm-191.68 0l56.04 0 0 -173.58 -56.04 0 0 173.58zm279.71 -175.57c-71.91,0 -95.47,14.39 -95.47,88.78 0,74.39 23.56,88.78 95.47,88.78 71.91,0 95.46,-14.39 95.46,-88.78 0,-74.39 -23.55,-88.78 -95.46,-88.78zm-37.94 88.78c0,-32.24 8.18,-45.63 37.94,-45.63 29.75,0 37.93,13.39 37.93,45.63 0,32.24 -8.18,45.63 -37.93,45.63 -29.76,0 -37.94,-13.39 -37.94,-45.63zm334.01 -18.35c1.73,-4.71 2.73,-6.2 3.72,-6.2 1.98,0 1.98,3.47 1.98,5.7l-1.98 105.64 56.53 0 0 -145.06c0,-10.92 -3.22,-30.51 -42.65,-30.51 -14.63,0 -35.7,2.24 -44.63,28.77l-28.02 84.31c-0.5,1.74 -2.98,7.94 -5.21,7.94 -2.23,0 -4.71,-6.2 -5.21,-7.94l-28.02 -84.31c-8.92,-26.78 -29.75,-28.77 -44.63,-28.77 -8.93,0 -42.65,0 -42.65,30.51l0 145.06 56.54 0 -1.74 -105.64c0,-1.73 0,-5.7 1.98,-5.7 1.24,0 2.48,2.98 3.48,6.2l26.78 83.82c3.96,12.64 8.92,23.31 33.47,23.31 24.55,0 29.51,-10.67 33.48,-23.31l26.78 -83.82zm85.05 -40.67l0 118.53c0,17.36 9.92,27.28 27.28,27.28l98.44 0c39.67,0 49.59,-16.61 49.59,-53.81 0,-37.2 -9.92,-54.31 -49.59,-54.31l-69.68 0 0 -11.9c0,-6.45 0.25,-10.41 10.66,-10.41l97.7 0 0 -43.15 -137.37 0c-6.2,0 -27.03,1.24 -27.03,27.77zm95.47 75.88c14.87,0 22.31,1.24 22.31,13.64 0,12.4 -7.44,13.14 -22.31,13.14l-28.52 0c-7.44,0 -10.91,-2.97 -10.91,-10.41l0 -16.37 39.43 0zm82.32 69.93l59.02 0 13.64 -35.71 62.48 0 13.64 35.71 59.02 0 -64.23 -154.49c-7.93,-19.34 -23.3,-21.08 -39.67,-21.08 -26.78,0 -34.22,8.19 -39.68,21.08l-64.22 154.49zm101.17 -121.75c0.75,-1.74 1.99,-3.72 2.73,-3.72 0.74,0 1.98,1.98 2.73,3.72l16.86 47.85 -39.18 0 16.86 -47.85zm289.13 -51.83l-56.04 0 0 61.5 -62.98 0 0 -61.5 -56.04 0 0 173.58 56.04 0 0 -68.94 62.98 0 0 68.94 56.04 0 0 -173.58zm216.48 173.58l-67.45 -75.88c-4.96,-5.45 -7.19,-9.42 -7.19,-13.14 0,-4.71 1.49,-8.43 5.21,-12.9l60.25 -71.66 -66.45 0 -46.62 65.46c-3.72,5.46 -5.46,11.66 -5.46,19.1 0,7.44 0.5,15.12 5.95,21.82l54.31 67.2 67.45 0zm-191.68 0l56.04 0 0 -173.58 -56.04 0 0 173.58z"/>
   </g>
  </g>
 </g>
</svg>
