<svg width="20" height="20" viewBox="0 0 20 20" fill="none" xmlns="http://www.w3.org/2000/svg">
<path fill-rule="evenodd" clip-rule="evenodd" d="M6.40169 5.6983L5.16269 6.7373C4.95969 6.9073 4.83269 7.1523 4.80969 7.4163C4.78769 7.6783 4.86869 7.9433 5.03969 8.1463C7.10069 10.6043 9.39269 12.8953 11.8507 14.9573C12.0537 15.1273 12.3167 15.2103 12.5807 15.1873C12.8447 15.1643 13.0887 15.0363 13.2597 14.8333L14.2977 13.5943C15.4817 14.3123 16.6967 14.9843 17.9247 15.6013L17.1777 16.7393C16.7697 17.3833 16.1057 17.8133 15.3067 17.9503C14.3657 18.1133 13.3597 17.8413 12.5447 17.2043C8.91269 14.3663 5.63069 11.0853 2.79269 7.4503C2.27669 6.7913 2.00069 6.0053 2.00069 5.2303C2.00069 5.0493 2.01569 4.8673 2.04669 4.6893C2.18369 3.8913 2.61369 3.2273 3.27069 2.8103L4.39569 2.0713C5.01269 3.2993 5.68569 4.5153 6.40169 5.6983ZM3.45169 0.299296L2.18569 1.1303C1.05969 1.8443 0.310687 2.9883 0.0756868 4.3493C-0.184313 5.8463 0.232687 7.4253 1.21669 8.6823C4.15569 12.4453 7.55269 15.8433 11.3137 18.7803C12.5707 19.7633 14.1507 20.1793 15.6467 19.9213C17.0087 19.6863 18.1517 18.9373 18.8597 17.8233L19.6977 16.5453L19.6997 16.5423C19.8957 16.2423 19.9957 15.8953 19.9957 15.5433C19.9957 15.3823 19.9747 15.2193 19.9317 15.0603C19.7927 14.5503 19.4417 14.1223 18.9677 13.8863C17.4887 13.1503 16.0267 12.3283 14.6197 11.4433C14.1967 11.1773 13.6427 11.2643 13.3207 11.6473L12.3757 12.7753C10.5447 11.1793 8.81769 9.4513 7.22169 7.6213L8.34969 6.6753C8.73169 6.3533 8.81869 5.7983 8.55269 5.3763C7.66969 3.9713 6.84769 2.5093 6.11069 1.0293C5.87469 0.555296 5.44669 0.203297 4.93669 0.0652963C4.43169 -0.0727042 3.89169 0.0122949 3.45169 0.299296Z" fill="#009846"/>
</svg>
