<svg width="24" height="24" viewBox="0 0 24 24" fill="none" xmlns="http://www.w3.org/2000/svg">
<path d="M18.5 15H16V18C16 18.1 16 19 15.5 20C15.2 20.5 14.8 21 14.2 21.4C13.6 21.8 12.8 22 11.9 22C11.4 22 11 21.6 10.9 21.1C10.9 20.9 10.6 19.3 9.9 17.7C9.5 17 9 16.3 8.5 15.8C7.9 15.3 7.4 15 6.6 15H3C2.4 15 2 14.6 2 14V5C2 4.4 2.4 4 3 4H6.5L12.3 2.2C12.6 2.1 13 2 13.3 2H16.6C18 2 19.2 2.9 19.6 4.2L21.6 11.2C21.7 11.5 21.7 11.7 21.7 12C21.6 13.6 20.3 15 18.5 15ZM4 13H6V6H4V13Z" fill="white"/>
</svg>
